<?xml version="1.0" encoding="utf-8"?>
<svg xmlns="http://www.w3.org/2000/svg" xmlns:xlink="http://www.w3.org/1999/xlink" style="margin: auto; background: none; display: block; --darkreader-inline-bgimage: initial; --darkreader-inline-bgcolor:#121415; shape-rendering: auto;" width="220px" height="220px" viewBox="0 0 100 100" preserveAspectRatio="xMidYMid" data-darkreader-inline-bgimage="" data-darkreader-inline-bgcolor="">
<g transform="translate(50 50)">
<g>
<animateTransform attributeName="transform" type="rotate" values="0;36" keyTimes="0;1" dur="0.3412969283276451s" repeatCount="indefinite"></animateTransform><path d="M29.58039891549808 -5 L37.58039891549808 -5 L37.58039891549808 5 L29.58039891549808 5 A30 30 0 0 1 26.86997168449058 13.341837267583301 L26.86997168449058 13.341837267583301 L33.34210763949016 18.044119285923085 L27.464255116565425 26.134289229672554 L20.992119161565846 21.43200721133277 A30 30 0 0 1 13.89612854675494 26.587546171319808 L13.89612854675494 26.587546171319808 L16.368264501754517 34.19599830168104 L6.857699338802986 37.28616824543051 L4.385563383803406 29.67771611506928 A30 30 0 0 1 -4.385563383803403 29.67771611506928 L-4.385563383803403 29.67771611506928 L-6.857699338802981 37.28616824543051 L-16.368264501754513 34.19599830168104 L-13.896128546754936 26.587546171319808 A30 30 0 0 1 -20.992119161565846 21.432007211332774 L-20.992119161565846 21.432007211332774 L-27.464255116565425 26.13428922967256 L-33.34210763949015 18.044119285923088 L-26.869971684490576 13.341837267583305 A30 30 0 0 1 -29.58039891549808 5.000000000000002 L-29.58039891549808 5.000000000000002 L-37.58039891549808 5.000000000000003 L-37.58039891549808 -4.999999999999995 L-29.58039891549808 -4.999999999999996 A30 30 0 0 1 -26.86997168449058 -13.341837267583298 L-26.86997168449058 -13.341837267583298 L-33.34210763949016 -18.04411928592308 L-27.46425511656543 -26.134289229672554 L-20.99211916156585 -21.43200721133277 A30 30 0 0 1 -13.896128546754953 -26.587546171319797 L-13.896128546754953 -26.587546171319797 L-16.368264501754535 -34.19599830168102 L-6.857699338802977 -37.28616824543051 L-4.3855633838033965 -29.677716115069284 A30 30 0 0 1 4.385563383803385 -29.677716115069284 L4.385563383803385 -29.677716115069284 L6.857699338802963 -37.28616824543052 L16.368264501754524 -34.19599830168103 L13.896128546754944 -26.587546171319804 A30 30 0 0 1 20.99211916156583 -21.432007211332788 L20.99211916156583 -21.432007211332788 L27.46425511656541 -26.134289229672575 L33.34210763949016 -18.04411928592308 L26.86997168449058 -13.341837267583296 A30 30 0 0 1 29.580398915498076 -5.0000000000000195 M0 -24A24 24 0 1 0 0 24 A24 24 0 1 0 0 -24" fill="#6db569" data-darkreader-inline-fill="" style="--darkreader-inline-fill:#487536;"></path></g></g>
<!-- [ldio] generated by https://loading.io/ --></svg>